<mxfile host="www.draw.io" modified="2019-12-19T16:58:57.010Z" agent="Mozilla/5.0 (Macintosh; Intel Mac OS X 10_15_0) AppleWebKit/537.36 (KHTML, like Gecko) Chrome/79.0.3945.79 Safari/537.36" etag="6l6IhzxV2mjfpAUgyBiP" version="12.4.3" type="github" pages="2">
  <diagram id="S9bAF8Y2xewPEpYPeAAs" name="architecture">
    <mxGraphModel dx="1553" dy="1986" grid="1" gridSize="10" guides="1" tooltips="1" connect="1" arrows="1" fold="1" page="1" pageScale="1" pageWidth="827" pageHeight="1169" math="0" shadow="0">
      <root>
        <mxCell id="0"/>
        <mxCell id="1" parent="0"/>
        <mxCell id="KJewuH6JOESfiElqel58-6" style="edgeStyle=none;rounded=0;orthogonalLoop=1;jettySize=auto;html=1;entryX=0;entryY=0.5;entryDx=0;entryDy=0;exitX=1;exitY=0.5;exitDx=0;exitDy=0;" parent="1" source="EZ-6pBKwDiRtnUQuMYFM-1" target="c5t16O94_06bRo73200G-6" edge="1">
          <mxGeometry relative="1" as="geometry">
            <mxPoint x="280" y="240" as="sourcePoint"/>
          </mxGeometry>
        </mxCell>
        <mxCell id="KJewuH6JOESfiElqel58-13" style="edgeStyle=none;rounded=0;orthogonalLoop=1;jettySize=auto;html=1;exitX=1;exitY=0;exitDx=0;exitDy=0;entryX=0;entryY=0.5;entryDx=0;entryDy=0;" parent="1" source="c5t16O94_06bRo73200G-2" target="c5t16O94_06bRo73200G-5" edge="1">
          <mxGeometry relative="1" as="geometry"/>
        </mxCell>
        <mxCell id="KJewuH6JOESfiElqel58-19" style="edgeStyle=none;rounded=0;orthogonalLoop=1;jettySize=auto;html=1;exitX=1;exitY=0.5;exitDx=0;exitDy=0;entryX=0;entryY=0.5;entryDx=0;entryDy=0;" parent="1" source="EZ-6pBKwDiRtnUQuMYFM-1" target="c5t16O94_06bRo73200G-7" edge="1">
          <mxGeometry relative="1" as="geometry"/>
        </mxCell>
        <mxCell id="VyrKJFE40DiqVYURIyEz-2" style="rounded=0;orthogonalLoop=1;jettySize=auto;html=1;exitX=1;exitY=0.5;exitDx=0;exitDy=0;entryX=0;entryY=0.5;entryDx=0;entryDy=0;" parent="1" source="EZ-6pBKwDiRtnUQuMYFM-1" target="VyrKJFE40DiqVYURIyEz-1" edge="1">
          <mxGeometry relative="1" as="geometry"/>
        </mxCell>
        <mxCell id="EZ-6pBKwDiRtnUQuMYFM-2" style="rounded=0;orthogonalLoop=1;jettySize=auto;html=1;entryX=0.125;entryY=0.5;entryDx=0;entryDy=0;entryPerimeter=0;" parent="1" source="c5t16O94_06bRo73200G-2" target="EZ-6pBKwDiRtnUQuMYFM-1" edge="1">
          <mxGeometry relative="1" as="geometry"/>
        </mxCell>
        <mxCell id="c5t16O94_06bRo73200G-2" value="LB/Gateway" style="ellipse;whiteSpace=wrap;html=1;aspect=fixed;fillColor=#d5e8d4;strokeColor=#82b366;" parent="1" vertex="1">
          <mxGeometry x="40" y="200" width="80" height="80" as="geometry"/>
        </mxCell>
        <mxCell id="KJewuH6JOESfiElqel58-3" style="edgeStyle=orthogonalEdgeStyle;rounded=0;orthogonalLoop=1;jettySize=auto;html=1;exitX=1;exitY=0.5;exitDx=0;exitDy=0;" parent="1" source="c5t16O94_06bRo73200G-5" target="KJewuH6JOESfiElqel58-1" edge="1">
          <mxGeometry relative="1" as="geometry"/>
        </mxCell>
        <mxCell id="KJewuH6JOESfiElqel58-14" style="edgeStyle=none;rounded=0;orthogonalLoop=1;jettySize=auto;html=1;exitX=0.271;exitY=-0.033;exitDx=0;exitDy=0;entryX=0.757;entryY=1.033;entryDx=0;entryDy=0;exitPerimeter=0;entryPerimeter=0;" parent="1" source="c5t16O94_06bRo73200G-5" target="KJewuH6JOESfiElqel58-9" edge="1">
          <mxGeometry relative="1" as="geometry"/>
        </mxCell>
        <mxCell id="KJewuH6JOESfiElqel58-17" style="edgeStyle=none;rounded=0;orthogonalLoop=1;jettySize=auto;html=1;exitX=0.5;exitY=0;exitDx=0;exitDy=0;entryX=0.5;entryY=1;entryDx=0;entryDy=0;" parent="1" source="c5t16O94_06bRo73200G-5" target="KJewuH6JOESfiElqel58-15" edge="1">
          <mxGeometry relative="1" as="geometry"/>
        </mxCell>
        <mxCell id="KJewuH6JOESfiElqel58-18" style="edgeStyle=none;rounded=0;orthogonalLoop=1;jettySize=auto;html=1;exitX=0.625;exitY=0;exitDx=0;exitDy=0;entryX=0.243;entryY=1.017;entryDx=0;entryDy=0;entryPerimeter=0;" parent="1" source="c5t16O94_06bRo73200G-5" target="KJewuH6JOESfiElqel58-16" edge="1">
          <mxGeometry relative="1" as="geometry"/>
        </mxCell>
        <mxCell id="c5t16O94_06bRo73200G-5" value="App&lt;br&gt;Service" style="shape=hexagon;html=1;whiteSpace=wrap;perimeter=hexagonPerimeter;rounded=0;size=0.2857142857142857;" parent="1" vertex="1">
          <mxGeometry x="390" y="95" width="70" height="60" as="geometry"/>
        </mxCell>
        <mxCell id="KJewuH6JOESfiElqel58-4" style="edgeStyle=orthogonalEdgeStyle;rounded=0;orthogonalLoop=1;jettySize=auto;html=1;exitX=1;exitY=0.5;exitDx=0;exitDy=0;" parent="1" source="c5t16O94_06bRo73200G-6" target="KJewuH6JOESfiElqel58-2" edge="1">
          <mxGeometry relative="1" as="geometry"/>
        </mxCell>
        <mxCell id="KJewuH6JOESfiElqel58-8" style="edgeStyle=none;rounded=0;orthogonalLoop=1;jettySize=auto;html=1;exitX=0.5;exitY=1;exitDx=0;exitDy=0;entryX=0.5;entryY=0;entryDx=0;entryDy=0;" parent="1" source="c5t16O94_06bRo73200G-6" target="c5t16O94_06bRo73200G-7" edge="1">
          <mxGeometry relative="1" as="geometry"/>
        </mxCell>
        <mxCell id="c5t16O94_06bRo73200G-6" value="Account Service" style="shape=hexagon;html=1;whiteSpace=wrap;perimeter=hexagonPerimeter;rounded=0;" parent="1" vertex="1">
          <mxGeometry x="390" y="305" width="70" height="60" as="geometry"/>
        </mxCell>
        <mxCell id="c5t16O94_06bRo73200G-7" value="Email Service" style="shape=hexagon;html=1;whiteSpace=wrap;perimeter=hexagonPerimeter;rounded=0;" parent="1" vertex="1">
          <mxGeometry x="390" y="200" width="70" height="60" as="geometry"/>
        </mxCell>
        <mxCell id="KJewuH6JOESfiElqel58-1" value="App DB&lt;br&gt;" style="shape=cylinder;whiteSpace=wrap;html=1;boundedLbl=1;backgroundOutline=1;" parent="1" vertex="1">
          <mxGeometry x="560" y="85" width="60" height="80" as="geometry"/>
        </mxCell>
        <mxCell id="KJewuH6JOESfiElqel58-2" value="Account DB" style="shape=cylinder;whiteSpace=wrap;html=1;boundedLbl=1;backgroundOutline=1;" parent="1" vertex="1">
          <mxGeometry x="565" y="295" width="60" height="80" as="geometry"/>
        </mxCell>
        <mxCell id="KJewuH6JOESfiElqel58-9" value="Storage&lt;br&gt;Service" style="shape=hexagon;html=1;whiteSpace=wrap;perimeter=hexagonPerimeter;rounded=0;size=0.2857142857142857;" parent="1" vertex="1">
          <mxGeometry x="250" y="-50" width="70" height="60" as="geometry"/>
        </mxCell>
        <mxCell id="KJewuH6JOESfiElqel58-15" value="Sawtooth&lt;br&gt;Service" style="shape=hexagon;html=1;whiteSpace=wrap;perimeter=hexagonPerimeter;rounded=0;size=0.2857142857142857;" parent="1" vertex="1">
          <mxGeometry x="390" y="-50" width="70" height="60" as="geometry"/>
        </mxCell>
        <mxCell id="KJewuH6JOESfiElqel58-16" value="Fabric&lt;br&gt;Service" style="shape=hexagon;html=1;whiteSpace=wrap;perimeter=hexagonPerimeter;rounded=0;size=0.2857142857142857;" parent="1" vertex="1">
          <mxGeometry x="530" y="-50" width="70" height="60" as="geometry"/>
        </mxCell>
        <mxCell id="VyrKJFE40DiqVYURIyEz-4" style="edgeStyle=none;rounded=0;orthogonalLoop=1;jettySize=auto;html=1;exitX=1;exitY=0.5;exitDx=0;exitDy=0;entryX=0;entryY=0.5;entryDx=0;entryDy=0;" parent="1" source="VyrKJFE40DiqVYURIyEz-1" target="VyrKJFE40DiqVYURIyEz-3" edge="1">
          <mxGeometry relative="1" as="geometry"/>
        </mxCell>
        <mxCell id="VyrKJFE40DiqVYURIyEz-1" value="Apps&lt;br&gt;Service" style="shape=hexagon;html=1;whiteSpace=wrap;perimeter=hexagonPerimeter;rounded=0;size=0.2857142857142857;" parent="1" vertex="1">
          <mxGeometry x="390" y="410" width="70" height="60" as="geometry"/>
        </mxCell>
        <mxCell id="VyrKJFE40DiqVYURIyEz-3" value="Apps&lt;br&gt;&amp;nbsp;DB" style="shape=cylinder;whiteSpace=wrap;html=1;boundedLbl=1;backgroundOutline=1;" parent="1" vertex="1">
          <mxGeometry x="565" y="400" width="60" height="80" as="geometry"/>
        </mxCell>
        <mxCell id="EZ-6pBKwDiRtnUQuMYFM-1" value="V-chain &lt;br&gt;front-end" style="whiteSpace=wrap;html=1;aspect=fixed;" parent="1" vertex="1">
          <mxGeometry x="190" y="285" width="80" height="80" as="geometry"/>
        </mxCell>
      </root>
    </mxGraphModel>
  </diagram>
  <diagram id="YG2kWyBaPJGQGZZ1_3GV" name="Flow">
    <mxGraphModel dx="932" dy="490" grid="1" gridSize="10" guides="1" tooltips="1" connect="1" arrows="1" fold="1" page="1" pageScale="1" pageWidth="827" pageHeight="1169" math="0" shadow="0">
      <root>
        <mxCell id="JJyonttHRWqO1ffSt9Pu-0"/>
        <mxCell id="JJyonttHRWqO1ffSt9Pu-1" parent="JJyonttHRWqO1ffSt9Pu-0"/>
        <mxCell id="mGlZdLuD692To2AyCfXG-3" value="login" style="edgeStyle=orthogonalEdgeStyle;rounded=0;orthogonalLoop=1;jettySize=auto;html=1;exitX=0.5;exitY=1;exitDx=0;exitDy=0;entryX=0.5;entryY=0;entryDx=0;entryDy=0;" parent="JJyonttHRWqO1ffSt9Pu-1" source="mGlZdLuD692To2AyCfXG-0" target="VJg0Jzq7aLUkYhYF0uZs-0" edge="1">
          <mxGeometry relative="1" as="geometry">
            <mxPoint x="412" y="40" as="targetPoint"/>
          </mxGeometry>
        </mxCell>
        <mxCell id="mGlZdLuD692To2AyCfXG-0" value="" style="ellipse;whiteSpace=wrap;html=1;aspect=fixed;" parent="JJyonttHRWqO1ffSt9Pu-1" vertex="1">
          <mxGeometry x="407" y="10" width="10" height="10" as="geometry"/>
        </mxCell>
        <mxCell id="mGlZdLuD692To2AyCfXG-4" style="edgeStyle=orthogonalEdgeStyle;rounded=0;orthogonalLoop=1;jettySize=auto;html=1;exitX=0.5;exitY=1;exitDx=0;exitDy=0;" parent="JJyonttHRWqO1ffSt9Pu-1" edge="1">
          <mxGeometry relative="1" as="geometry">
            <mxPoint x="412" y="80" as="sourcePoint"/>
            <mxPoint x="412" y="80" as="targetPoint"/>
          </mxGeometry>
        </mxCell>
        <mxCell id="zObz1S2SEYL4xXPp6xG1-1" style="edgeStyle=orthogonalEdgeStyle;rounded=0;orthogonalLoop=1;jettySize=auto;html=1;exitX=0.5;exitY=1;exitDx=0;exitDy=0;" edge="1" parent="JJyonttHRWqO1ffSt9Pu-1" source="VJg0Jzq7aLUkYhYF0uZs-0" target="zObz1S2SEYL4xXPp6xG1-0">
          <mxGeometry relative="1" as="geometry"/>
        </mxCell>
        <mxCell id="VJg0Jzq7aLUkYhYF0uZs-0" value="users-service" style="shape=hexagon;html=1;whiteSpace=wrap;perimeter=hexagonPerimeter;rounded=0;size=0.2857142857142857;" parent="JJyonttHRWqO1ffSt9Pu-1" vertex="1">
          <mxGeometry x="379" y="80" width="68" height="60" as="geometry"/>
        </mxCell>
        <mxCell id="zObz1S2SEYL4xXPp6xG1-0" value="app-service" style="shape=hexagon;html=1;whiteSpace=wrap;perimeter=hexagonPerimeter;rounded=0;size=0.2857142857142857;" vertex="1" parent="JJyonttHRWqO1ffSt9Pu-1">
          <mxGeometry x="379" y="220" width="68" height="60" as="geometry"/>
        </mxCell>
        <mxCell id="zObz1S2SEYL4xXPp6xG1-4" value="- forgotPassword" style="text;html=1;" vertex="1" parent="JJyonttHRWqO1ffSt9Pu-1">
          <mxGeometry x="520" y="135" width="110" height="30" as="geometry"/>
        </mxCell>
        <mxCell id="zObz1S2SEYL4xXPp6xG1-5" value="- resetPassword" style="text;html=1;" vertex="1" parent="JJyonttHRWqO1ffSt9Pu-1">
          <mxGeometry x="520" y="110" width="100" height="30" as="geometry"/>
        </mxCell>
        <mxCell id="zObz1S2SEYL4xXPp6xG1-6" value="- updateProfile" style="text;html=1;" vertex="1" parent="JJyonttHRWqO1ffSt9Pu-1">
          <mxGeometry x="520" y="85" width="100" as="geometry"/>
        </mxCell>
        <mxCell id="zObz1S2SEYL4xXPp6xG1-7" value="- createAccount" style="text;html=1;" vertex="1" parent="JJyonttHRWqO1ffSt9Pu-1">
          <mxGeometry x="520" y="65" width="100" height="30" as="geometry"/>
        </mxCell>
      </root>
    </mxGraphModel>
  </diagram>
</mxfile>
